<?xml version="1.0" encoding="utf-8"?>
<!-- Generator: Adobe Illustrator 24.2.3, SVG Export Plug-In . SVG Version: 6.00 Build 0)  -->
<svg version="1.1" id="Layer_1" xmlns="http://www.w3.org/2000/svg" xmlns:xlink="http://www.w3.org/1999/xlink" x="0px" y="0px"
	 viewBox="0 0 395.8 85.8" style="enable-background:new 0 0 395.8 85.8;" xml:space="preserve">
<style type="text/css">
	.st0{fill:url(#SVGID_1_);}
	.st1{fill:#FDBE2D;}
	.st2{fill:#FCC12E;}
	.st3{fill:#FCBE2D;}
	.st4{fill:#FDCD2F;}
	.st5{fill:#FDD631;}
	.st6{fill:#FCBF2D;}
	.st7{fill:#FDCC2F;}
	.st8{fill:#FAD734;}
	.st9{fill:#FDD832;}
	.st10{fill:#FDD130;}
</style>
<linearGradient id="SVGID_1_" gradientUnits="userSpaceOnUse" x1="201.6755" y1="56.525" x2="201.6755" y2="29.2783">
	<stop  offset="0" style="stop-color:#FFDD00"/>
	<stop  offset="0.4918" style="stop-color:#FFCF00"/>
	<stop  offset="1" style="stop-color:#FFBC00"/>
</linearGradient>
<path class="st0" d="M216.1,34.6h-12.6v5.7h7.6c1.5,0,2.6,1.2,2.6,2.6v0c0,1.5-1.2,2.6-2.6,2.6h-7.6v5.7h12.6c1.5,0,2.6,1.2,2.6,2.6
	v0c0,1.5-1.2,2.6-2.6,2.6h-12.6h-2.5c-1.6,0-2.8-1.3-2.8-2.8v-2.5v-5.7v-5.3v-5.7v-2.5c0-1.6,1.3-2.8,2.8-2.8h2.5h12.6
	c1.5,0,2.6,1.2,2.6,2.6v0C218.8,33.4,217.6,34.6,216.1,34.6z M229.6,51.2V31.9c0-1.5-1.2-2.6-2.6-2.6l0,0c-1.5,0-2.6,1.2-2.6,2.6
	v19.3v2.6c0,1.5,1.2,2.6,2.6,2.6h2.6h7.3c1.5,0,2.6-1.2,2.6-2.6v0c0-1.5-1.2-2.6-2.6-2.6H229.6z M265.5,31.9L265.5,31.9
	c0-1.5-1.2-2.6-2.6-2.6h-12.6h-2.5c-1.6,0-2.8,1.3-2.8,2.8v2.5v5.7v5.3v5.7v2.5c0,1.6,1.3,2.8,2.8,2.8h2.5h12.6
	c1.5,0,2.6-1.2,2.6-2.6v0c0-1.5-1.2-2.6-2.6-2.6h-12.6v-5.7h7.6c1.5,0,2.6-1.2,2.6-2.6v0c0-1.5-1.2-2.6-2.6-2.6h-7.6v-5.7h12.6
	C264.4,34.6,265.5,33.4,265.5,31.9z M193.5,37.2c0.1,4.6-3.6,8.4-8.1,8.4h-9.5v8.3c0,1.6-1.4,2.9-3.1,2.6c-1.3-0.2-2.2-1.4-2.2-2.8
	v-6.8v-1.4v-1.4v-1V31.9v0v-0.1h0c0.1-1.4,1.2-2.5,2.6-2.5c1.3,0,2.7,0,2.7,0h9.1C189.4,29.3,193.3,32.7,193.5,37.2z M188.2,37.1
	c-0.2-1.5-1.5-2.5-3-2.5h-9.3v5.7h9.5C187,40.3,188.3,38.8,188.2,37.1z M143.1,53.9c0-1.5-1.2-2.6-2.6-2.6c-1.5,0-2.6,1.2-2.6,2.6
	c0,1.5,1.2,2.6,2.6,2.6C141.9,56.5,143.1,55.3,143.1,53.9z M143.1,37.4c0-1.5,1.7-2.8,3.6-2.8h15.7c1.5,0,2.6-1.2,2.6-2.6
	c0-1.5-1.2-2.6-2.6-2.6h-15.7c-4.9,0-8.9,3.6-8.9,8.1c0,4.5,4,8.1,8.9,8.1h9.4c2,0,3.6,1.3,3.6,2.8c0,1.5-1.7,2.8-3.6,2.8h-7.1
	c-1.5,0-2.6,1.2-2.6,2.6c0,1.5,1.2,2.6,2.6,2.6h7.1c4.9,0,8.9-3.6,8.9-8.1c0-4.5-4-8.1-8.9-8.1h-9.4C144.8,40.3,143.1,39,143.1,37.4
	z"/>
<g>
	<path class="st1" d="M234.8-180.4c-4,0.7-8,0.1-12.1,0.3c-1,0-2-0.3-2.9,0.4c0.5,1.2,0.7,2.5-0.6,3.3c-1.2,0.9-2.7,0.7-4.1,0.3
		c-1.4-0.4-1.4-1.6-1.5-2.8c-0.1-1.7,0.4-3.2,0.7-4.8c0.3-1.5,1.3-2,2.8-2c3.7,0,7.4,0,11.1-0.1c1.2,0,2.4,0.1,3.7,0.1
		c1.4,0,2.9,0,3.6,1.4C236.6-182.8,235.9-181.5,234.8-180.4z"/>
	<path class="st2" d="M158.3-180.8c0.2,1.5,1.1,2.9,0.5,4.5c-1.6,1.6-3.5,1.1-5.3,0.6c-2.5-4.5-6.7-2.8-10.5-2.9
		c-1.1,0-1.5,0.8-1.6,1.8c-0.1,1,0,2.1-0.9,2.9c-0.9,0.4-1.3-0.4-1.9-0.8c-1.5-1-2.5-0.5-2.7,1.3c-0.1,1.1,0.1,2.3-0.2,3.4
		c-0.2,0.9-0.4,2.2-1.9,1.2c-1.2-3.3-0.4-6.6-0.6-9.9c0.2-1.3-0.1-2.6,0.1-3.9c0.2-1.3,0.5-2.4,2.1-2.6c0.9-0.5,1.8-0.6,2.9-0.6
		c3.3,0,6.6,0.2,9.9,0C152.6-186,156-184.4,158.3-180.8z"/>
	<path class="st3" d="M180.2-185.8c0.7,0,1.5,0.1,2.2,0.1c3.5,0.1,4.5,1.9,2.8,4.9c-0.4,1.6-1.7,1.9-3.1,2c-2.7,0.2-5.5,0.3-8.1-0.1
		c-2.1-0.3-3.2,0.2-3.3,2.4c0,0.7-0.4,1.2-1,1.6c-1.9,0.7-3.7,1-5.5-0.3c-0.5-2.7-0.2-5.3-0.1-8c0.2-0.5,0.4-1,0.6-1.5
		c1-0.8,2.1-1,3.4-1C172.2-185.7,176.2-185.8,180.2-185.8z"/>
	<path class="st4" d="M192.6-157.5c-0.2-0.3-0.4-0.7-0.6-1c0-8.5,0.1-17.1,0.1-25.6c0.7-0.5,1.3-1,2-1.5c1.4-0.1,2.5,0.5,3.3,1.6
		c1.7,1.3,1.1,3.1,1.2,4.8c0.1,1-0.1,2-0.2,2.9c0.3,3.5,0.2,7,0.2,10.6c0,2,0.9,2.9,2.9,2.8c1.2,0,2.3,0,3.5,0.1
		c3.2,0.2,4.4,1.9,3.6,5.2c-1,1.7-2.5,2.4-4.5,2.4c-2.7,0-5.4,0-8.2,0C194.4-155.6,193.3-156.1,192.6-157.5z"/>
	<path class="st4" d="M214.6-183.7c0,1.1-0.1,2.3,0,3.4c0.2,1.3-0.9,3.1,1.6,3.4c2.4,0.3,3.5-0.5,3.7-2.9c0.1,0,0.3-0.1,0.4-0.2
		c0.4,0.6,0.9,1.2,0.8,2c-0.1,2.5,1.3,3,3.4,2.9c1-0.1,2,0,3,0c2,0,3.6,0.9,4.1,2.9c0.5,2.1-0.5,3.4-2.4,4.2
		c-1.7,0.7-3.4,0.4-5.1,0.4c-1.9,0-3,0.6-2.9,2.7c0,0.9-0.4,1.6-0.9,2.2c-0.1-0.1-0.2-0.2-0.4-0.1c-1.2-0.7-2.4-1.3-3.8-1.2
		c-1,0.1-1.5,0.4-1.6,0.5c-0.7,0.5-0.9,1.2-1,1.5c0.2-7,0.5-13.9,0.7-20.9C214.3-183.1,214.4-183.4,214.6-183.7z"/>
	<path class="st5" d="M122-173.4c4.3,1.1,6.9,4.6,6.5,8.8c-0.4,4.4-4.1,7.6-9.1,7.9c-1.3,0.1-2.6,0.1-3.9,0.1c-1,0-2-0.1-2.9-0.1
		c-2.9-0.1-3.7-0.9-3.7-3.8c0-2.4,1.7-2.8,3.5-3c2.1-0.2,4.1,0,6.2-0.1c1.2-0.1,2.8,0,2.8-1.7c0-1.7-1.6-1.9-2.9-2
		c-3.1-0.2-6.1-0.1-9.2-0.1c-1.5,0-3-0.2-4.4-0.8c-1.3-0.5-2.7-1.1-2.8-2.8c-0.2-0.3-0.4-0.6-0.5-1c0.5-2.5,2.5-2.2,4.1-1.9
		c4.7,0.8,9.4,0.3,14.2,0.5C120.5-173.3,121.3-173.5,122-173.4z"/>
	<path class="st6" d="M122-173.4c-1.2,0.7-2.6,0.5-3.9,0.5c-4.4,0-8.8,0-13.2,0c-1.2,0-2.5,0-3.5,1c-2.3-2.6-2.7-5.6-1.2-8.6
		c1.6-3.2,4.2-5.1,7.9-5.1c3.9,0,7.8-0.1,11.6-0.1c1.6,0,3.3,0.1,4.9,0.1c1.5,0,2.8,0.2,3.5,1.7c0.7,1.5-0.1,2.7-1.1,3.7
		c-5.6,0.7-11.2,0.2-16.9,0.3c-3.3,0.1-5.2,1-5.3,2.9c-0.1,1.9,2,3.2,5.3,3.2c2.8,0,5.6,0,8.4,0C120-173.9,121.1-174.1,122-173.4z"
		/>
	<path class="st7" d="M134.4-158.1c0-3.5,0.1-6.9,0.1-10.4c0.6-1.8,0.2-3.6,0.3-5.4c0.1-1.1-0.2-2.5,1.6-2.4
		c1.3,0.1,3.2-0.8,3.5,1.6c0,0.3,0.3,0.5,0.5,0.8c0.7-0.9,1.6-1,2.6-1c3.5,0,7,0.2,10.3-1.4c1.8,0,3.6,0,5.4,0
		c0.3,3.6-4.3,8-8.2,7.9c-2.7-0.1-5.5,0.1-8.2,0c-1.6-0.1-2.1,0.4-2.1,2c0,2.9,0.5,5.9-0.6,8.8c-0.6,0.4-1.2,0.7-1.8,1.1
		C136.3-156.2,135.6-157.6,134.4-158.1z"/>
	<path class="st8" d="M103.5-162.2c0.7,0.6,1.3,1.2,1.6,2.1c0,1.7-0.7,3-2.5,3.3c-1.3,0.2-2.2-0.5-2.8-1.6
		C98.7-160.5,100.4-162.3,103.5-162.2z"/>
	<path class="st9" d="M231-156.5c-4,0-8,0-12-0.1c-1.1,0-2.3-0.2-3.4-0.4c-2.9-0.9-3.6-4.2-1.3-6.5c0.6-2,2.3-1.4,3.7-1.5
		c1.8-0.1,1.4,1.5,1.9,2.4c4.3,0.8,8.6,0.2,12.9,0.4c1.7,0.1,3.1,0.4,3.3,2.5c0.1,1.8-0.8,2.8-2.5,3.1
		C232.7-156.5,231.8-156.6,231-156.5z"/>
	<path class="st10" d="M180.7-156.5c-4.4,0-8.9-0.1-13.3-0.1c-1.8,0-3-0.6-3.3-2.5c0.1-5.4,0.1-10.8,0.2-16.3c1.8,0,3.6,0,5.4,0
		c0,1.2,0.7,1.5,1.8,1.4c1.8-0.1,3.6,0,5.5,0c3.2,0,3.9,0.8,3.7,4c0.1,1.9-1.2,2.3-2.7,2.5c-1.5,0.2-2.9,0.1-4.4,0.1
		c-1.8-0.1-2.8,0.6-2.7,2.5c0,0.8-0.2,1.6-0.6,2.3c3.9,0.6,7.9,0.4,11.8,0.2c3.2-0.1,5.4,2.5,3,5.2
		C183.7-156.4,182.2-156.8,180.7-156.5z"/>
	<path class="st4" d="M207.2-185.3"/>
</g>
</svg>
